<?xml version="1.0" standalone="no"?>
<!DOCTYPE svg PUBLIC "-//W3C//DTD SVG 20010904//EN"
 "http://www.w3.org/TR/2001/REC-SVG-20010904/DTD/svg10.dtd">
<svg version="1.0" xmlns="http://www.w3.org/2000/svg"
 width="503.000000pt" height="503.000000pt" viewBox="0 0 503.000000 503.000000"
 preserveAspectRatio="xMidYMid meet">
<metadata>
Created by potrace 1.11, written by Peter Selinger 2001-2013
</metadata>
<g transform="translate(0.000000,503.000000) scale(0.100000,-0.100000)"
fill="#000000" stroke="none">
<path d="M1620 3483 c-56 -21 -99 -77 -107 -140 -5 -34 -62 -103 -86 -103 -23
0 -64 -38 -69 -64 -7 -35 16 -83 44 -92 19 -6 101 -8 280 -5 31 1 40 6 51 29
8 15 12 39 10 55 -2 15 1 27 7 27 14 0 46 34 64 69 40 76 1 185 -76 216 -38
15 -90 18 -118 8z"/>
<path d="M2116 3395 c-56 -14 -91 -45 -107 -94 -17 -50 -17 -622 0 -672 25
-76 103 -113 207 -99 93 13 130 71 133 206 l2 84 -60 0 -61 0 -1 -32 c-2 -123
-8 -138 -61 -138 -17 0 -31 7 -38 19 -15 29 -14 583 2 599 7 7 27 12 45 12 39
0 51 -22 51 -91 0 -84 -4 -79 62 -79 l60 0 0 83 c0 93 -22 155 -63 182 -38 24
-117 34 -171 20z"/>
<path d="M2459 3373 c0 -10 -1 -200 -2 -423 l0 -405 61 -3 62 -3 0 426 0 425
-60 0 c-50 0 -60 -3 -61 -17z"/>
<path d="M2688 3383 c-3 -7 -3 -775 1 -825 1 -16 13 -18 113 -18 135 0 185 18
215 78 16 34 18 66 18 352 0 297 -1 317 -20 348 -35 58 -67 69 -203 71 -66 1
-122 -2 -124 -6z m217 -139 c7 -13 10 -120 10 -287 -1 -298 -1 -297 -69 -297
l-41 0 2 278 c1 152 3 290 3 305 0 27 2 28 42 25 31 -2 45 -9 53 -24z"/>
<path d="M3226 3343 c-4 -26 -9 -56 -11 -65 -4 -23 -15 -95 -21 -138 -2 -19
-6 -46 -9 -60 -3 -14 -7 -43 -10 -65 -3 -22 -8 -51 -10 -65 -3 -14 -7 -43 -10
-65 -3 -22 -8 -51 -10 -65 -3 -14 -7 -47 -11 -75 -3 -27 -7 -59 -9 -70 -1 -11
-6 -46 -10 -78 l-7 -58 64 3 c48 2 63 7 63 18 1 8 4 48 9 88 l8 72 63 0 64 0
6 -47 c4 -27 8 -57 10 -68 2 -11 4 -30 4 -42 1 -21 5 -23 67 -23 57 0 65 2 60
18 -3 9 -8 42 -11 72 -3 30 -8 66 -10 80 -2 14 -9 61 -15 105 -6 44 -12 91
-15 105 -4 23 -22 137 -30 185 -2 11 -6 40 -9 65 -4 25 -8 54 -10 65 -5 27
-20 128 -20 140 -1 6 -39 11 -87 13 l-86 3 -7 -48z m100 -224 c4 -29 12 -90
18 -134 7 -44 12 -93 11 -110 0 -28 -3 -30 -42 -33 l-43 -3 6 43 c2 24 7 57 9
73 3 17 8 55 11 85 4 30 8 62 10 70 1 8 3 28 3 44 1 44 10 27 17 -35z"/>
<path d="M3595 2968 l0 -423 114 -3 c98 -2 119 0 156 18 78 38 80 47 80 410 0
310 0 316 -23 351 -33 54 -79 69 -215 69 l-112 0 0 -422z m220 276 c7 -13 10
-122 10 -289 0 -252 -1 -268 -20 -281 -20 -15 -84 -20 -86 -6 -1 10 -1 585 0
595 1 5 20 7 43 5 31 -2 45 -9 53 -24z"/>
<path d="M4057 3383 c-2 -5 -3 -195 -3 -423 l1 -415 157 -3 157 -3 3 28 c2 16
1 43 -1 61 l-3 32 -97 0 -96 0 2 107 c1 60 2 115 2 123 1 13 16 16 83 15 l82
0 1 57 c1 33 -3 59 -9 61 -6 2 -44 3 -83 2 -40 -1 -73 2 -74 7 0 4 -1 59 -2
121 l0 112 96 3 c106 3 99 -2 99 67 0 59 10 55 -156 55 -85 0 -157 -3 -159 -7z"/>
<path d="M745 3233 c-88 -69 -168 -131 -178 -138 -17 -12 -19 -32 -19 -255 0
-203 -2 -239 -13 -230 -11 9 -24 4 -57 -24 -89 -72 -263 -206 -271 -206 -4 0
-7 26 -6 58 l2 58 48 23 c166 76 112 324 -71 324 -109 0 -186 -97 -166 -208 9
-46 59 -102 108 -122 l38 -15 0 -82 0 -81 -38 -26 -37 -27 1 -363 c1 -200 2
-368 3 -374 1 -8 175 -12 276 -6 13 1 15 26 15 161 l0 161 143 -3 142 -3 0
-157 -1 -158 26 -1 c142 -5 529 -3 541 3 15 6 17 30 17 180 0 95 1 185 1 200
l1 26 140 1 140 0 0 -204 c0 -113 3 -205 8 -206 4 0 71 -1 148 -2 l141 -2 1
145 c0 80 1 155 1 167 1 21 3 21 39 9 l37 -13 0 -152 -1 -151 26 0 26 0 -1
155 c0 147 1 155 19 155 11 0 40 13 66 30 108 69 128 211 43 309 -55 65 -144
86 -238 56 -20 -6 -20 -2 -19 238 l1 244 -205 159 c-112 87 -210 164 -217 171
-10 10 -25 3 -71 -32 -33 -25 -62 -45 -66 -45 -4 0 -6 22 -5 50 0 27 -1 51 -4
53 -5 5 -331 257 -344 267 -6 5 -80 -47 -170 -117z m100 -338 l0 -70 -78 -3
-77 -3 0 76 0 76 77 -3 78 -3 0 -70z m273 20 c-2 -69 -23 -92 -90 -96 -26 -2
-51 1 -55 5 -4 4 -8 39 -9 77 l-1 69 78 0 78 0 -1 -55z m-278 -226 c4 -6 5
-114 1 -141 -1 -5 -35 -8 -76 -8 l-75 0 0 78 0 78 73 0 c39 0 74 -4 77 -7z
m471 -114 c4 -61 0 -157 -5 -163 -11 -11 -175 -8 -179 3 -3 9 -1 162 2 175 0
3 42 5 91 5 83 1 90 -1 91 -20z m332 16 c4 0 6 -43 5 -93 l-3 -93 -90 0 -90 0
-3 95 -3 95 88 -1 c48 -1 92 -2 96 -3z m-695 -225 l3 -77 -81 62 c-108 84
-106 95 15 94 l60 -1 3 -78z m364 -186 c0 -41 -1 -84 -1 -95 -1 -18 -8 -20
-91 -20 -49 0 -91 3 -91 8 -3 16 -5 172 -3 178 2 3 45 5 95 5 l92 -1 -1 -75z
m333 -19 l0 -94 -90 -1 -90 0 -3 84 c-2 46 -1 88 2 95 2 7 35 11 92 11 l89 -1
0 -94z m-1200 -80 l0 -94 -88 0 c-49 1 -91 4 -94 7 -5 5 -6 22 -4 133 l1 52
93 -2 92 -2 0 -94z m331 87 c8 -12 9 -162 2 -174 -5 -7 -80 -10 -169 -5 -14 1
-16 14 -14 89 1 48 3 90 3 93 3 10 172 7 178 -3z"/>
<path d="M4300 2429 c-45 -10 -82 -39 -104 -83 -17 -34 -18 -65 -18 -349 0
-212 4 -322 12 -342 25 -66 76 -97 160 -97 75 -1 127 25 157 78 22 38 22 45
20 364 -2 305 -3 327 -22 359 -35 59 -119 87 -205 70z m104 -167 c10 -65 6
-516 -5 -549 -9 -28 -15 -33 -43 -33 -17 0 -37 5 -44 12 -9 9 -12 90 -12 304
0 286 0 293 21 308 35 24 76 3 83 -42z"/>
<path d="M2289 2418 c-1 -2 -2 -193 -3 -426 l-1 -423 60 3 60 3 0 222 c0 122
3 217 6 210 4 -7 12 -39 19 -72 7 -33 28 -125 46 -205 19 -80 34 -148 34 -152
0 -5 20 -8 44 -8 43 0 43 0 51 43 4 23 9 49 11 57 2 8 21 94 43 190 l39 175 1
-232 1 -233 59 0 59 0 -1 425 0 425 -62 0 -61 0 -24 -97 c-13 -54 -25 -100
-25 -103 -21 -99 -90 -368 -94 -364 -3 2 -6 10 -7 17 -2 7 -10 41 -19 77 -9
36 -18 72 -20 80 -2 8 -18 71 -35 140 -17 69 -36 145 -41 170 -17 83 -14 80
-80 80 -32 0 -59 -1 -60 -2z"/>
<path d="M2929 2418 c-1 -2 -2 -193 -3 -426 l-1 -422 158 0 c169 0 159 -4 159
55 0 70 7 65 -97 65 -109 0 -97 -17 -97 130 0 44 1 88 1 98 1 16 10 18 80 17
89 -1 88 -2 86 75 l0 45 -83 0 -82 -1 -1 51 c-1 82 -1 149 0 173 1 21 4 22 96
22 103 0 97 -4 97 65 0 19 0 40 -1 45 -1 8 -309 16 -312 8z"/>
<path d="M3339 2418 c-1 -2 -2 -193 -3 -425 l-1 -423 157 0 156 0 4 50 c1 28
2 55 0 60 -2 6 -44 10 -98 10 -68 0 -94 3 -95 13 0 6 -1 171 -1 365 l-1 352
-58 0 c-33 0 -60 -1 -60 -2z"/>
<path d="M3729 2413 c-1 -5 -2 -196 -3 -425 l-1 -418 63 0 62 0 0 183 0 184
50 -1 c28 0 51 -5 51 -10 1 -6 2 -87 3 -181 l1 -170 61 -3 61 -3 0 426 -1 426
-60 -3 -61 -3 0 -177 c0 -98 -2 -178 -5 -179 -3 -1 -26 -2 -52 -3 l-48 -3 0
184 0 183 -60 0 c-33 0 -61 -3 -61 -7z"/>
<path d="M4639 2418 c-1 -2 -2 -193 -3 -425 l-1 -423 61 0 62 0 0 158 c0 202
0 212 10 212 5 0 19 -37 32 -82 12 -46 29 -101 35 -123 7 -22 21 -68 31 -102
l18 -63 67 0 68 0 -59 168 c-32 92 -63 179 -68 193 -10 24 -7 30 28 58 50 40
57 68 55 212 -1 101 -4 120 -24 153 -33 53 -73 66 -202 66 -60 0 -110 -1 -110
-2z m201 -133 c20 -24 21 -182 1 -205 -19 -22 -68 -34 -77 -18 -4 6 -7 62 -8
124 l-1 114 36 0 c21 0 42 -7 49 -15z"/>
</g>
</svg>
